{"title":"Gori vatra (2003)","uid":6588776,"size":730840011,"categoryP":"video","categoryS":"movies","magnet":"?xt=urn:btih:3ce98c292bb7a7016d96a76fc9ff96b7f651c865&amp;dn=Gori+vatra+%282003%29&amp;tr=udp%3A%2F%2Ftracker.openbittorrent.com%3A80&amp;tr=udp%3A%2F%2Fopen.demonii.com%3A1337&amp;tr=udp%3A%2F%2Ftracker.coppersurfer.tk%3A6969&amp;tr=udp%3A%2F%2Fexodus.desync.com%3A6969","seeders":2,"leechers":0,"uploader":"bUhhhh8","files":-1,"time":1312733681,"description":"Title....... Gori vatra (original title) aka Fuse\nYear........ 2003\nGenre....... Comedy / Drama\nRuntime..... 01:45:33\nIMDb rate... 7.0/10 (865 votes)\nIMDb URL.... http://www.imdb.com/title/tt0347105/\n\nStoryline:\nIn the Bosnian town of Tesanj, not long after the Balkan war, land mines claim victims, corruption is rampant, women are trafficked into Serbia, but there's a sort of peace. Zaim, the retired police chief, has alcoholic visions of his dead son Adnan, whose body's missing. Adnan's siblings, Faruk and Azra, watch their father's decline. It's announced that President Clinton will pay Tesanj a visit to see the new harmony. Whores are hidden from sight, Serbs are trucked in to integrate the neighborhood; the children's choir learns &quot;House of the Rising Sun.&quot; Meanwhile, Faruk wants to sort out his brother's death to bring some peace to his house. Can it work out? Irony is everywhere.\n\n\n\n\nGeneral\nFormat                           : AVI\nFormat/Info                      : Audio Video Interleave\nFile size                        : 697 MiB\nDuration                         : 1h 45mn\nOverall bit rate                 : 923 Kbps\n\nVideo\nID                               : 0\nFormat                           : MPEG-4 Visual\nFormat profile                   : Simple@L3\nFormat settings, BVOP            : No\nFormat settings, QPel            : No\nFormat settings, GMC             : No warppoints\nFormat settings, Matrix          : Default (H.263)\nCodec ID                         : XVID\nCodec ID/Hint                    : XviD\nDuration                         : 1h 45mn\nBit rate                         : 789 Kbps\nWidth                            : 640 pixels\nHeight                           : 352 pixels\nDisplay aspect ratio             : 16:9\nFrame rate                       : 25.000 fps\nColor space                      : YUV\nChroma subsampling               : 4:2:0\nBit depth                        : 8 bits\nScan type                        : Progressive\nCompression mode                 : Lossy\nBits/(Pixel*Frame)               : 0.140\nStream size                      : 596 MiB (85%)\nWriting library                  : XviD 0.0.12 (UTC 2003-06-11)\n\nAudio\nID                               : 1\nFormat                           : MPEG Audio\nFormat version                   : Version 1\nFormat profile                   : Layer 3\nMode                             : Joint stereo\nMode extension                   : MS Stereo\nCodec ID                         : 55\nCodec ID/Hint                    : MP3\nDuration                         : 1h 45mn\nBit rate mode                    : Constant\nBit rate                         : 128 Kbps\nChannel(s)                       : 2 channels\nSampling rate                    : 44.1 KHz\nCompression mode                 : Lossy\nStream size                      : 96.6 MiB (14%)\nAlignment                        : Split accross interleaves\nInterleave, duration             : 200 ms (5.00 video frames)\nWriting library                  : LAME3.96.1\n\n\n\nSubtitles: English, Spanish, Slovenian and Turkish","torrent":{"xt":"urn:btih:3ce98c292bb7a7016d96a76fc9ff96b7f651c865","amp;dn":"Gori+vatra+%282003%29","amp;tr":["udp%3A%2F%2Ftracker.openbittorrent.com%3A80","udp%3A%2F%2Fopen.demonii.com%3A1337","udp%3A%2F%2Ftracker.coppersurfer.tk%3A6969","udp%3A%2F%2Fexodus.desync.com%3A6969"],"infoHash":"3ce98c292bb7a7016d96a76fc9ff96b7f651c865","infoHashBuffer":{"type":"Buffer","data":[60,233,140,41,43,183,167,1,109,150,167,111,201,255,150,183,246,81,200,101]},"announce":[],"urlList":[]}}